<svg id="Grupo_397" data-name="Grupo 397" xmlns="http://www.w3.org/2000/svg" xmlns:xlink="http://www.w3.org/1999/xlink" width="232.34" height="51.647" viewBox="0 0 232.34 51.647">
  <defs>
    <clipPath id="clip-path">
      <rect id="Rectángulo_309" data-name="Rectángulo 309" width="232.34" height="51.647" transform="translate(0 0)" fill="none"/>
    </clipPath>
  </defs>
  <g id="Grupo_396" data-name="Grupo 396" clip-path="url(#clip-path)">
    <path id="Trazado_648" data-name="Trazado 648" d="M66.56,20.413c.535,1.786,1.152,3.8,1.639,5.34.5,1.559,1.315,4.058,1.8,5.617l-.065.13c-.844.015-1.2.032-1.883.064l-.114-.114c-.405-1.525-.536-1.963-.958-3.424-.649,0-1.282-.016-1.931-.016-.714,0-1.461.016-2.11.016-.471,1.526-.568,1.915-.958,3.36l-.113.114c-.7,0-.861,0-1.672.049l-.066-.114a4.576,4.576,0,0,1,.179-.5q.925-2.631,1.8-5.259c.974-2.873,1.332-3.929,1.8-5.487l.13-.114c1.136-.016,1.281-.016,2.32-.064l.114.114Zm-3.214,6.314c.519,0,1.039.017,1.558.017.552,0,1.136-.017,1.7-.017L65.05,21.241Z" fill="#fdfdfd"/>
    <path id="Trazado_649" data-name="Trazado 649" d="M71.24,31.37v-.5c0-.147,0-.439-.016-.747l.114-.081a3.157,3.157,0,0,0,.893.13,1.319,1.319,0,0,0,1.315-.764c.13-.307.178-.471.178-3,0-2.078-.033-4.156-.13-6.217l.1-.114c.682-.016.959-.016,1.818-.049l.082.114c-.082,3.441-.082,3.62-.065,5.1v1.461c.016.243.016.828.016,1.461,0,1.331-.081,3.473-3.019,3.473a4.931,4.931,0,0,1-1.2-.129Z" fill="#fdfdfd"/>
    <path id="Trazado_650" data-name="Trazado 650" d="M86.761,20.138c-.032,1.477-.049,1.866-.049,3.149,0,.7,0,1.218.017,2.434l.015,1.462a4.776,4.776,0,0,1-.941,3.393,4.494,4.494,0,0,1-3.344,1.2A4.551,4.551,0,0,1,78.9,30.462c-.876-1.007-.876-1.981-.876-3.88V24.926c0-2.354,0-2.629-.049-4.739l.113-.114c.894-.017,1.007-.017,1.819-.049l.081.114c-.065,1.689-.065,4.626-.065,6.2,0,1.623.033,2.613.6,3.278a2.525,2.525,0,0,0,2.028.8,2.459,2.459,0,0,0,2.305-1.233,6.492,6.492,0,0,0,.358-2.873c0-1.883-.017-4.269-.131-6.119l.082-.114c.747-.017.844-.017,1.493-.049Z" fill="#fdfdfd"/>
    <path id="Trazado_651" data-name="Trazado 651" d="M98.29,31.418l-.081.114c-.958,0-1.023,0-2,.049l-.129-.114c-.958-1.7-1.916-3.408-2.889-5.112l-2.565-4.578.162,5.567c.017.682.049,1.348.065,2.029.049,1.347.049,1.38.082,2.045l-.1.114c-.714,0-.779,0-1.559.049l-.1-.114c.065-1.542.082-3.1.082-4.643,0-2.207-.017-4.43-.1-6.638l.08-.114c1.006-.016,1.169-.016,2.1-.049l.162.114c1.1,1.981,2.239,4.042,3.311,5.925l2.013,3.555-.13-5.389c-.065-2.549-.082-2.922-.147-4.042l.1-.114c.731,0,.893-.016,1.542-.049l.1.114c-.032,1.981-.065,4.009-.065,6.006,0,1.526.017,3.068.049,4.594Z" fill="#fdfdfd"/>
    <path id="Trazado_652" data-name="Trazado 652" d="M108.264,21.468c-1.364-.032-1.591-.032-2.987-.032-.032,1.623-.032,1.883-.032,3.327,0,4.074.065,5.681.113,6.655l-.1.114c-.924,0-.974,0-1.866.049l-.082-.114c.082-2.272.1-4.544.1-6.818,0-1.655-.034-2.516-.049-3.213-1.413.016-1.575.016-3.02.064l-.1-.113c.033-.568.033-.632.065-1.2l.082-.114c1.168,0,3.035,0,4.2-.016,1.25,0,2.5-.016,3.75-.033l.081.114a11.3,11.3,0,0,0-.065,1.218Z" fill="#fdfdfd"/>
    <path id="Trazado_653" data-name="Trazado 653" d="M114.615,20.413c.535,1.786,1.152,3.8,1.639,5.34.5,1.559,1.315,4.058,1.8,5.617l-.065.13c-.844.015-1.2.032-1.883.064l-.114-.114c-.405-1.525-.536-1.963-.958-3.424-.649,0-1.282-.016-1.931-.016-.714,0-1.461.016-2.11.016-.471,1.526-.568,1.915-.958,3.36l-.113.114c-.7,0-.861,0-1.672.049l-.066-.114a4.579,4.579,0,0,1,.179-.5q.926-2.631,1.8-5.259c.974-2.873,1.332-3.929,1.8-5.487l.13-.114c1.136-.016,1.281-.016,2.32-.064l.114.114ZM111.4,26.727c.519,0,1.039.017,1.558.017.552,0,1.136-.017,1.7-.017l-1.558-5.486Z" fill="#fdfdfd"/>
    <path id="Trazado_654" data-name="Trazado 654" d="M131.29,20.138c.082,3.766.211,7.516.422,11.281l-.081.114c-.812,0-.909.017-1.753.049l-.1-.114c.017-1.834,0-2.4-.048-4.188l-.033-1.721c0-1.152-.016-3.635-.016-4.252-.259.941-.5,1.8-1.185,4.074l-.746,2.353c-.6,1.8-.8,2.436-1.17,3.685l-.1.114c-.876,0-.957,0-1.882.049l-.1-.114c-.081-.276-.163-.552-.243-.812-.13-.5-.844-2.922-1.007-3.457l-.649-2.273c-.649-2.321-.715-2.581-.942-3.619-.015,1.623-.032,1.98-.08,3.6l-.114,2.905c-.065,1.915-.065,2.337-.082,3.6l-.08.114a15.555,15.555,0,0,0-1.559.049l-.081-.114c.033-.324.065-.665.1-.991.163-1.931.227-3.862.342-5.794.162-2.889.177-3.068.177-4.5l.1-.114c1.185,0,1.477-.017,2.5-.049l.114.114c.292,1.3.568,2.24.892,3.344l1.769,6.558,2.062-6.769c.649-2.11.681-2.191.925-3.084l.1-.114c1.185,0,1.33-.017,2.451-.049Z" fill="#fdfdfd"/>
    <path id="Trazado_655" data-name="Trazado 655" d="M141.166,30.2c-.048.551-.048.665-.081,1.217l-.114.114c-3.164,0-3.667.016-6.751.049l-.082-.114c.049-1.283.1-2.159.1-5.13,0-2.727,0-4.285-.113-6.151l.1-.114c3.2-.017,3.829-.017,6.816-.049l.1.114c-.049.486-.081.682-.113,1.266l-.1.114c-2.094-.065-2.792-.065-4.853-.082-.049,1.494-.049,1.965-.049,3.458,2,.016,2.613,0,4.594-.033l.08.114a11.177,11.177,0,0,0-.08,1.249l-.1.114c-1.883-.049-2.289-.049-4.5-.049-.032,1.883-.017,2.339,0,3.881,2.451,0,2.954,0,5.048-.082Z" fill="#fdfdfd"/>
    <path id="Trazado_656" data-name="Trazado 656" d="M152.452,31.418l-.081.114c-.958,0-1.023,0-2,.049l-.129-.114c-.958-1.7-1.916-3.408-2.889-5.112l-2.565-4.578.162,5.567c.017.682.049,1.348.065,2.029.049,1.347.049,1.38.082,2.045l-.1.114c-.714,0-.779,0-1.559.049l-.1-.114c.065-1.542.082-3.1.082-4.643,0-2.207-.017-4.43-.1-6.638l.08-.114c1.006-.016,1.169-.016,2.1-.049l.162.114c1.1,1.981,2.239,4.042,3.311,5.925l2.013,3.555-.13-5.389c-.065-2.549-.082-2.922-.147-4.042l.1-.114c.731,0,.893-.016,1.542-.049l.1.114c-.032,1.981-.065,4.009-.065,6.006,0,1.526.017,3.068.049,4.594Z" fill="#fdfdfd"/>
    <path id="Trazado_657" data-name="Trazado 657" d="M162.49,21.468c-1.364-.032-1.591-.032-2.987-.032-.032,1.623-.032,1.883-.032,3.327,0,4.074.065,5.681.113,6.655l-.1.114c-.924,0-.974,0-1.866.049l-.082-.114c.082-2.272.1-4.544.1-6.818,0-1.655-.034-2.516-.049-3.213-1.413.016-1.575.016-3.02.064l-.1-.113c.033-.568.033-.632.065-1.2l.082-.114c1.168,0,3.035,0,4.2-.016,1.25,0,2.5-.016,3.75-.033l.081.114a11.3,11.3,0,0,0-.065,1.218Z" fill="#fdfdfd"/>
    <path id="Trazado_658" data-name="Trazado 658" d="M169.575,31.582l-.081-.114c.048-1.315.065-2.533.065-4.2,0-4.528-.065-5.86-.146-7.076l.1-.114,2.386-.049c1.9-.033,3.571-.049,4.918.811,2.127,1.365,2.127,3.994,2.127,4.676a7.317,7.317,0,0,1-.438,2.645A5.168,5.168,0,0,1,173.7,31.5a27.029,27.029,0,0,1-3.035.065Zm7.077-3.8a6.608,6.608,0,0,0,.389-2.4,4.253,4.253,0,0,0-1.184-3.247,4.429,4.429,0,0,0-2.9-.811c-.569,0-1.023.016-1.575.032-.033,1.022-.049,1.607-.049,4.042,0,2.97.016,3.328.049,4.805,2.175.032,4.285.065,5.275-2.419" fill="#fdfdfd"/>
    <path id="Trazado_659" data-name="Trazado 659" d="M188.02,30.2c-.048.551-.048.665-.081,1.217l-.114.114c-3.164,0-3.667.016-6.751.049l-.082-.114c.049-1.283.1-2.159.1-5.13,0-2.727,0-4.285-.113-6.151l.1-.114c3.2-.017,3.829-.017,6.816-.049l.1.114c-.049.486-.081.682-.113,1.266l-.1.114c-2.094-.065-2.792-.065-4.853-.082-.049,1.494-.049,1.965-.049,3.458,2,.016,2.613,0,4.594-.033l.08.114a11.177,11.177,0,0,0-.08,1.249l-.1.114c-1.883-.049-2.289-.049-4.5-.049-.032,1.883-.017,2.339,0,3.881,2.451,0,2.954,0,5.048-.082Z" fill="#fdfdfd"/>
    <path id="Trazado_660" data-name="Trazado 660" d="M196.9,31.533c-.925,0-.942,0-1.786.049l-.1-.114c.049-1.575.065-3.166.065-4.741,0-3.635-.065-4.918-.162-6.54l.1-.114h.406c.292,0,1.088-.017,1.639-.017l.991-.016a7.714,7.714,0,0,1,2.548.277,2.783,2.783,0,0,1,2.046,2.872c0,1.3-.7,2.614-2.777,3.182.276.373,1.542,2.224,1.835,2.646.5.714.73,1.038,1.737,2.369l-.065.163c-.326,0-.666,0-.991.016-.341.017-.681.032-1.022.065l-.114-.081-.2-.341c-.47-.828-1.022-1.607-1.542-2.4-.974-1.477-1.071-1.639-1.46-2.158-.5.016-.6.032-1.169.016,0,.893.016,3.392.113,4.755Zm3.311-6.834a1.766,1.766,0,0,0,.617-1.363,2.176,2.176,0,0,0-.308-1.121c-.519-.8-1.4-.844-2.614-.844-.211,0-.5,0-1.055.017-.016,1.883-.016,2.142,0,3.944,1.234.017,2.581.049,3.36-.633" fill="#fdfdfd"/>
    <path id="Trazado_661" data-name="Trazado 661" d="M212.12,30.2c-.048.551-.048.665-.081,1.217l-.114.114c-3.164,0-3.667.016-6.751.049l-.082-.114c.049-1.283.1-2.159.1-5.13,0-2.727,0-4.285-.113-6.151l.1-.114c3.2-.017,3.829-.017,6.816-.049l.1.114c-.049.486-.081.682-.113,1.266l-.1.114c-2.094-.065-2.792-.065-4.853-.082-.049,1.494-.049,1.965-.049,3.458,2,.016,2.613,0,4.594-.033l.08.114a11.177,11.177,0,0,0-.08,1.249l-.1.114c-1.883-.049-2.289-.049-4.5-.049-.032,1.883-.017,2.339,0,3.881,2.451,0,2.954,0,5.048-.082Z" fill="#fdfdfd"/>
    <path id="Trazado_662" data-name="Trazado 662" d="M222.823,20.138c-.032,1.477-.049,1.866-.049,3.149,0,.7,0,1.218.017,2.434l.015,1.462a4.776,4.776,0,0,1-.941,3.393,4.494,4.494,0,0,1-3.344,1.2,4.551,4.551,0,0,1-3.555-1.315c-.876-1.007-.876-1.981-.876-3.88V24.926c0-2.354,0-2.629-.049-4.739l.113-.114c.894-.017,1.007-.017,1.819-.049l.081.114c-.065,1.689-.065,4.626-.065,6.2,0,1.623.033,2.613.6,3.278a2.525,2.525,0,0,0,2.028.8,2.459,2.459,0,0,0,2.305-1.233,6.492,6.492,0,0,0,.358-2.873c0-1.883-.017-4.269-.131-6.119l.082-.114c.747-.017.844-.017,1.494-.049Z" fill="#fdfdfd"/>
    <path id="Trazado_663" data-name="Trazado 663" d="M229.58,25.04c1.185.519,2.76,1.2,2.76,3.279,0,1.818-1.348,3.457-4.172,3.457a7.048,7.048,0,0,1-3.214-.714l-.065-.114c.065-.568.082-.876.13-1.493l.162-.065a4.788,4.788,0,0,0,2.857.957c1.672,0,2.369-.86,2.369-1.834,0-1.136-.94-1.574-2-1.98l-.811-.357c-1.152-.536-2.694-1.233-2.694-3.214a3,3,0,0,1,.5-1.7,3.994,3.994,0,0,1,3.408-1.429,8.487,8.487,0,0,1,2.922.52l.081.13c-.065.616-.081.844-.13,1.428l-.13.065a5.354,5.354,0,0,0-2.678-.746c-1.347,0-2.192.633-2.192,1.59a1.456,1.456,0,0,0,.829,1.282,8.5,8.5,0,0,0,1.249.584Z" fill="#fdfdfd"/>
    <path id="Trazado_664" data-name="Trazado 664" d="M31.207,23.876a9.438,9.438,0,0,0-2.5.323l-.057.016-.03-.051a3.275,3.275,0,0,0-2.06-1.514l-.057-.014,0-.058a9.722,9.722,0,0,0-.639-2.895l-.044-.116-.043.116a9.64,9.64,0,0,0-.606,2.887l0,.059-.058.013a3.278,3.278,0,0,0-2.074,1.493l-.03.049-.056-.015a9.3,9.3,0,0,0-2.436-.3c-.17,0-.343,0-.519.01l-.124,0,.1.077a9.673,9.673,0,0,0,2.558,1.47l.055.02-.005.059c-.01.1-.016.2-.016.308a3.256,3.256,0,0,0,.794,2.126l.038.044-.032.049a9.734,9.734,0,0,0-1.185,2.72l-.034.12.1-.069a9.657,9.657,0,0,0,2.188-1.978l.037-.046.054.023a3.247,3.247,0,0,0,2.56.016l.053-.023.037.045a9.682,9.682,0,0,0,2.217,1.964l.1.069-.033-.119a9.644,9.644,0,0,0-1.212-2.688l-.032-.05.039-.044a3.251,3.251,0,0,0,.825-2.159c0-.092-.007-.183-.014-.273l-.005-.058.054-.021a9.747,9.747,0,0,0,2.555-1.5l.1-.078-.124,0c-.147-.005-.293-.008-.438-.008m-5.385,4.18a2.235,2.235,0,1,1,2.235-2.235,2.238,2.238,0,0,1-2.235,2.235" fill="#fdfdfd"/>
    <path id="Trazado_665" data-name="Trazado 665" d="M25.823,0,0,25.823,25.823,51.646,51.647,25.823Zm7.864,13.307c.738-.31,1.51-.572,1.518-.574l.169-.057,0,.178c0,.008-.011.822-.077,1.621-.042.506-.093.877-.131,1.115a3.327,3.327,0,0,0-1.74-.232,3.3,3.3,0,0,0-.761-1.58c.214-.11.553-.274,1.024-.471m-17.246-.576c.008,0,.779.265,1.519.574.471.2.81.362,1.024.471a3.314,3.314,0,0,0-.762,1.581,3.336,3.336,0,0,0-1.74.231c-.038-.239-.089-.61-.13-1.115-.067-.8-.077-1.613-.077-1.62l0-.179ZM13.21,31.542c-.239-.037-.609-.1-1.106-.221-.779-.184-1.558-.425-1.565-.428l-.171-.053.107-.143c0-.006.492-.659,1.015-1.267.333-.387.594-.659.765-.828a3.317,3.317,0,0,0,1.267,1.214,3.312,3.312,0,0,0-.312,1.726m13.6,9.025c-.415.684-.886,1.35-.89,1.356l-.1.146-.1-.146c-.005-.006-.475-.671-.892-1.356-.265-.438-.443-.77-.551-.985a3.338,3.338,0,0,0,1.546-.831,3.349,3.349,0,0,0,1.546.832c-.109.215-.288.547-.553.984M37.047,29.862a2.388,2.388,0,0,1-1.19,3.658,12.605,12.605,0,0,0-3.165,1.757,12.637,12.637,0,0,0-2.648,2.465,2.315,2.315,0,0,1-.226.265,2.436,2.436,0,0,1-.305.265,2.376,2.376,0,0,1-3.692-1.315,2.333,2.333,0,0,1-.374.788,2.383,2.383,0,0,1-1.923.979,2.372,2.372,0,0,1-1.7-.718,2.255,2.255,0,0,1-.225-.263,12.637,12.637,0,0,0-2.648-2.466,12.62,12.62,0,0,0-3.163-1.757,2.468,2.468,0,0,1-.669-.342,2.376,2.376,0,0,1,.11-3.917c-.045,0-.09,0-.135,0a2.375,2.375,0,0,1-2.255-3.108A2.409,2.409,0,0,1,13,25.784a2.643,2.643,0,0,1,.181-.3A12.568,12.568,0,0,0,14.7,22.208a12.608,12.608,0,0,0,.694-3.551,2.277,2.277,0,0,1,.027-.348,2.375,2.375,0,0,1,3.851-1.5,2.375,2.375,0,0,1,2.616-3.2,2.545,2.545,0,0,1,.337.081,12.61,12.61,0,0,0,3.592.439,12.635,12.635,0,0,0,3.592-.438,2.472,2.472,0,0,1,.338-.082,2.374,2.374,0,0,1,2.616,3.2,2.378,2.378,0,0,1,3.851,1.5,2.55,2.55,0,0,1,.027.345,12.553,12.553,0,0,0,.693,3.552,12.619,12.619,0,0,0,1.526,3.281,2.269,2.269,0,0,1,.182.3,2.3,2.3,0,0,1,.157.372,2.373,2.373,0,0,1-2.254,3.108c-.046,0-.091,0-.137,0a2.335,2.335,0,0,1,.634.6m2.492,1.462c-.5.117-.868.184-1.106.221a3.309,3.309,0,0,0-.312-1.728A3.308,3.308,0,0,0,39.389,28.6c.171.17.431.442.764.829.523.606,1.011,1.259,1.015,1.266l.107.143-.17.053c-.008,0-.786.244-1.566.428" fill="#fdfdfd"/>
    <path id="Trazado_666" data-name="Trazado 666" d="M34.116,23.163l-.05-.033.02-.056a2.525,2.525,0,0,0,.024-1.642,2.555,2.555,0,0,0-1.427-1.561l-.034-.018-.072-.024a6.4,6.4,0,0,1-1.744-.907,6.61,6.61,0,0,1-1.408-1.382l-.04-.056-.037-.038a2.561,2.561,0,0,0-1.921-.869,2.525,2.525,0,0,0-1.562.537l-.048.036-.047-.036a2.52,2.52,0,0,0-1.557-.533,2.56,2.56,0,0,0-1.922.871l-.028.028-.047.064a6.466,6.466,0,0,1-1.4,1.379,6.714,6.714,0,0,1-1.723.9l-.133.028-.086.061a2.564,2.564,0,0,0-1.341,1.522,2.52,2.52,0,0,0,.026,1.647l.02.056-.049.034a2.529,2.529,0,0,0-.986,1.321,2.556,2.556,0,0,0,.233,2.094l.016.035.049.068a6.431,6.431,0,0,1,.878,1.76,6.589,6.589,0,0,1,.327,1.943l0,.144.02.067a2.564,2.564,0,0,0,1.033,1.744,2.535,2.535,0,0,0,1.5.488l.139,0,.017.057a2.552,2.552,0,0,0,3.021,1.767l.052-.01.056-.018a6.53,6.53,0,0,1,1.944-.291,6.609,6.609,0,0,1,1.951.291l.048.015.06.013a2.578,2.578,0,0,0,.574.065,2.552,2.552,0,0,0,2.449-1.838l.016-.057.134,0a2.541,2.541,0,0,0,1.5-.488,2.571,2.571,0,0,0,1.037-1.777l.012-.03V30.39a6.43,6.43,0,0,1,.325-1.939A6.584,6.584,0,0,1,34.8,26.7l.106-.133.024-.08a2.56,2.56,0,0,0-.814-3.32m-.008,3A7.551,7.551,0,0,0,33.1,28.178a7.314,7.314,0,0,0-.367,2.21,1.687,1.687,0,0,1-.692,1.251,1.669,1.669,0,0,1-.987.322,1.7,1.7,0,0,1-1-.333,1.685,1.685,0,0,1-1.594,2.225,1.733,1.733,0,0,1-.405-.049,7.547,7.547,0,0,0-2.225-.335,7.259,7.259,0,0,0-2.215.334,1.763,1.763,0,0,1-.414.051,1.67,1.67,0,0,1-.989-.322,1.689,1.689,0,0,1-.606-1.9,1.684,1.684,0,0,1-2.686-1.228,7.615,7.615,0,0,0-.369-2.22,7.343,7.343,0,0,0-1-2A1.685,1.685,0,0,1,18.971,23.6h.016a1.684,1.684,0,0,1,.34-2.934,7.528,7.528,0,0,0,2-1.037,7.331,7.331,0,0,0,1.6-1.572,1.685,1.685,0,0,1,2.9.574,1.683,1.683,0,0,1,2.9-.584,7.539,7.539,0,0,0,1.6,1.578,7.318,7.318,0,0,0,1.987,1.032,1.684,1.684,0,0,1,.352,2.935h.02a1.685,1.685,0,0,1,1.43,2.574" fill="#fdfdfd"/>
  </g>
</svg>
